<svg data-v-fde0c5aa="" xmlns="http://www.w3.org/2000/svg" viewBox="0 0 300 300" class="icon"><!----><defs data-v-fde0c5aa=""><!----></defs><rect data-v-fde0c5aa="" fill="transparent" x="0" y="0" width="300px" height="300px" class="logo-background-square"></rect><!----><defs data-v-fde0c5aa=""><linearGradient data-v-fde0c5aa="" gradientTransform="rotate(25)" id="f581fd65-b669-45bb-8e92-cef0aa6098dc" x1="0%" y1="0%" x2="100%" y2="0%"><stop data-v-fde0c5aa="" offset="0%" stop-color="#4E1A70" stop-opacity="1"></stop><stop data-v-fde0c5aa="" offset="100%" stop-color="#2B4CF2" stop-opacity="1"></stop></linearGradient></defs><g data-v-fde0c5aa="" id="61adbde4-2be6-46b5-a1e3-7034c68e72a1" fill="url(#f581fd65-b669-45bb-8e92-cef0aa6098dc)" stroke="none" transform="matrix(2.199999832153333,0,0,2.199999832153333,67.02371619997282,40.000000000000014)"><path d="M71.862 0H9.725C7.761 0 4.947 1.064 3.473 2.362l-.792.698C1.206 4.36 0 7.031 0 8.995V96.428A3.583 3.583 0 0 0 3.572 100h62.132a3.581 3.581 0 0 0 3.572-3.572V11.722a3.58 3.58 0 0 0-3.572-3.572H24.172a2.352 2.352 0 0 0-4.703 0V32.667l-5.917-5.777-5.12 5.777V8.148h-4.86c-.026 0-.049.006-.075.008L7.34 3.755h64.463V93.04h.057a3.585 3.585 0 0 0 3.573-3.572V3.573A3.581 3.581 0 0 0 71.862 0z"></path></g><!----></svg>