<svg data-v-fde0c5aa="" xmlns="http://www.w3.org/2000/svg" viewBox="0 0 300 300" class="iconLeft"><!----><defs data-v-fde0c5aa=""><!----></defs><rect data-v-fde0c5aa="" fill="transparent" x="0" y="0" width="300px" height="300px" class="logo-background-square"></rect><defs data-v-fde0c5aa=""><!----></defs><g data-v-fde0c5aa="" id="f8f10cd9-824e-40be-8af6-8c12526f3ce3" fill="#000000" transform="matrix(2.170172097940048,0,0,2.170172097940048,83.84712883370257,123.65411102075706)"><path d="M14.01 8.97L12.69 8.97L12.69 8.97Q12.69 8.15 12.52 7.67L12.52 7.67L12.52 7.67Q12.34 7.19 11.93 6.95L11.93 6.95L11.93 6.95Q11.52 6.70 10.85 6.63L10.85 6.63L10.85 6.63Q10.18 6.56 9.19 6.56L9.19 6.56L5.68 6.56L5.68 6.56Q4.81 6.56 4.21 6.61L4.21 6.61L4.21 6.61Q3.61 6.67 3.22 6.82L3.22 6.82L3.22 6.82Q2.83 6.98 2.62 7.27L2.62 7.27L2.62 7.27Q2.41 7.57 2.31 8.05L2.31 8.05L2.31 8.05Q2.21 8.54 2.20 9.25L2.20 9.25L2.20 9.25Q2.19 9.95 2.19 10.94L2.19 10.94L2.19 10.94Q2.19 11.92 2.20 12.63L2.20 12.63L2.20 12.63Q2.22 13.34 2.32 13.82L2.32 13.82L2.32 13.82Q2.41 14.31 2.62 14.60L2.62 14.60L2.62 14.60Q2.83 14.90 3.22 15.05L3.22 15.05L3.22 15.05Q3.61 15.21 4.21 15.26L4.21 15.26L4.21 15.26Q4.81 15.31 5.68 15.31L5.68 15.31L9.20 15.31L9.20 15.31Q9.97 15.31 10.52 15.27L10.52 15.27L10.52 15.27Q11.07 15.23 11.46 15.12L11.46 15.12L11.46 15.12Q11.85 15.01 12.09 14.82L12.09 14.82L12.09 14.82Q12.33 14.63 12.47 14.34L12.47 14.34L12.47 14.34Q12.60 14.05 12.65 13.64L12.65 13.64L12.65 13.64Q12.69 13.23 12.69 12.69L12.69 12.69L12.69 12.03L7.43 12.03L7.43 10.94L14.01 10.94L14.01 12.69L14.01 12.69Q14.01 13.34 13.92 13.87L13.92 13.87L13.92 13.87Q13.84 14.40 13.63 14.82L13.63 14.82L13.63 14.82Q13.43 15.23 13.08 15.53L13.08 15.53L13.08 15.53Q12.73 15.83 12.20 16.03L12.20 16.03L12.20 16.03Q11.66 16.22 10.92 16.31L10.92 16.31L10.92 16.31Q10.19 16.41 9.20 16.41L9.20 16.41L5.68 16.41L5.68 16.41Q4.48 16.41 3.65 16.26L3.65 16.26L3.65 16.26Q2.83 16.11 2.30 15.81L2.30 15.81L2.30 15.81Q1.76 15.52 1.47 15.07L1.47 15.07L1.47 15.07Q1.18 14.62 1.05 14.01L1.05 14.01L1.05 14.01Q0.92 13.40 0.90 12.63L0.90 12.63L0.90 12.63Q0.88 11.87 0.88 10.94L0.88 10.94L0.88 10.94Q0.88 10.01 0.90 9.24L0.90 9.24L0.90 9.24Q0.92 8.48 1.05 7.87L1.05 7.87L1.05 7.87Q1.18 7.26 1.47 6.81L1.47 6.81L1.47 6.81Q1.76 6.36 2.30 6.06L2.30 6.06L2.30 6.06Q2.83 5.76 3.65 5.62L3.65 5.62L3.65 5.62Q4.48 5.47 5.68 5.47L5.68 5.47L9.19 5.47L9.19 5.47Q10.18 5.47 10.92 5.56L10.92 5.56L10.92 5.56Q11.66 5.65 12.19 5.84L12.19 5.84L12.19 5.84Q12.72 6.03 13.07 6.32L13.07 6.32L13.07 6.32Q13.43 6.60 13.63 6.99L13.63 6.99L13.63 6.99Q13.84 7.38 13.92 7.88L13.92 7.88L13.92 7.88Q14.01 8.37 14.01 8.97L14.01 8.97ZM15.54 12.20L15.54 12.20L15.54 12.20Q15.54 10.99 15.80 10.19L15.80 10.19L15.80 10.19Q16.06 9.40 16.63 8.93L16.63 8.93L16.63 8.93Q17.21 8.47 18.12 8.28L18.12 8.28L18.12 8.28Q19.04 8.09 20.35 8.09L20.35 8.09L20.35 8.09Q21.66 8.09 22.58 8.28L22.58 8.28L22.58 8.28Q23.50 8.47 24.07 8.93L24.07 8.93L24.07 8.93Q24.64 9.40 24.90 10.19L24.90 10.19L24.90 10.19Q25.16 10.99 25.16 12.20L25.16 12.20L25.16 12.20Q25.16 13.41 24.90 14.21L24.90 14.21L24.90 14.21Q24.64 15.00 24.07 15.48L24.07 15.48L24.07 15.48Q23.50 15.95 22.58 16.14L22.58 16.14L22.58 16.14Q21.66 16.34 20.35 16.34L20.35 16.34L20.35 16.34Q19.04 16.34 18.12 16.14L18.12 16.14L18.12 16.14Q17.21 15.95 16.63 15.48L16.63 15.48L16.63 15.48Q16.06 15.00 15.80 14.21L15.80 14.21L15.80 14.21Q15.54 13.41 15.54 12.20ZM16.85 12.20L16.85 12.20L16.85 12.20Q16.85 12.85 16.90 13.34L16.90 13.34L16.90 13.34Q16.95 13.82 17.08 14.17L17.08 14.17L17.08 14.17Q17.21 14.52 17.45 14.74L17.45 14.74L17.45 14.74Q17.69 14.96 18.08 15.09L18.08 15.09L18.08 15.09Q18.47 15.22 19.03 15.26L19.03 15.26L19.03 15.26Q19.58 15.31 20.35 15.31L20.35 15.31L20.35 15.31Q21.01 15.31 21.52 15.28L21.52 15.28L21.52 15.28Q22.04 15.25 22.43 15.14L22.43 15.14L22.43 15.14Q22.81 15.03 23.08 14.83L23.08 14.83L23.08 14.83Q23.36 14.63 23.53 14.28L23.53 14.28L23.53 14.28Q23.69 13.93 23.77 13.42L23.77 13.42L23.77 13.42Q23.85 12.91 23.85 12.20L23.85 12.20L23.85 12.20Q23.85 11.49 23.77 11.00L23.77 11.00L23.77 11.00Q23.69 10.50 23.53 10.17L23.53 10.17L23.53 10.17Q23.36 9.83 23.08 9.64L23.08 9.64L23.08 9.64Q22.81 9.44 22.43 9.34L22.43 9.34L22.43 9.34Q22.04 9.24 21.52 9.21L21.52 9.21L21.52 9.21Q21.01 9.19 20.35 9.19L20.35 9.19L20.35 9.19Q19.69 9.19 19.18 9.21L19.18 9.21L19.18 9.21Q18.66 9.24 18.28 9.34L18.28 9.34L18.28 9.34Q17.89 9.44 17.62 9.64L17.62 9.64L17.62 9.64Q17.34 9.83 17.18 10.17L17.18 10.17L17.18 10.17Q17.01 10.50 16.93 11.00L16.93 11.00L16.93 11.00Q16.85 11.49 16.85 12.20ZM31.94 10.28L33.75 10.28L33.75 10.28Q34.83 10.28 35.60 10.37L35.60 10.37L35.60 10.37Q36.37 10.46 36.90 10.63L36.90 10.63L36.90 10.63Q37.43 10.81 37.75 11.07L37.75 11.07L37.75 11.07Q38.06 11.33 38.23 11.66L38.23 11.66L38.23 11.66Q38.40 11.99 38.46 12.40L38.46 12.40L38.46 12.40Q38.51 12.81 38.51 13.29L38.51 13.29L38.51 13.29Q38.51 13.77 38.42 14.19L38.42 14.19L38.42 14.19Q38.34 14.61 38.12 14.96L38.12 14.96L38.12 14.96Q37.90 15.31 37.52 15.58L37.52 15.58L37.52 15.58Q37.15 15.85 36.57 16.04L36.57 16.04L36.57 16.04Q35.98 16.24 35.17 16.33L35.17 16.33L35.17 16.33Q34.35 16.43 33.26 16.43L33.26 16.43L31.51 16.43L31.51 16.43Q30.52 16.43 29.78 16.36L29.78 16.36L29.78 16.36Q29.05 16.28 28.51 16.13L28.51 16.13L28.51 16.13Q27.98 15.98 27.63 15.74L27.63 15.74L27.63 15.74Q27.28 15.50 27.07 15.19L27.07 15.19L27.07 15.19Q26.87 14.87 26.78 14.46L26.78 14.46L26.78 14.46Q26.70 14.05 26.70 13.56L26.70 13.56L28.01 13.56L28.01 13.56Q28.01 14.18 28.19 14.53L28.19 14.53L28.19 14.53Q28.37 14.88 28.78 15.05L28.78 15.05L28.78 15.05Q29.19 15.22 29.86 15.27L29.86 15.27L29.86 15.27Q30.52 15.31 31.51 15.31L31.51 15.31L33.26 15.31L33.26 15.31Q34.41 15.31 35.16 15.20L35.16 15.20L35.16 15.20Q35.92 15.09 36.37 14.85L36.37 14.85L36.37 14.85Q36.83 14.62 37.01 14.23L37.01 14.23L37.01 14.23Q37.19 13.84 37.19 13.29L37.19 13.29L37.19 13.29Q37.19 12.74 37.07 12.37L37.07 12.37L37.07 12.37Q36.94 12.00 36.57 11.78L36.57 11.78L36.57 11.78Q36.20 11.56 35.52 11.47L35.52 11.47L35.52 11.47Q34.84 11.38 33.75 11.38L33.75 11.38L31.94 11.38L31.94 11.38Q30.74 11.38 29.88 11.29L29.88 11.29L29.88 11.29Q29.03 11.20 28.44 11.03L28.44 11.03L28.44 11.03Q27.86 10.86 27.51 10.61L27.51 10.61L27.51 10.61Q27.17 10.36 26.98 10.04L26.98 10.04L26.98 10.04Q26.80 9.72 26.75 9.33L26.75 9.33L26.75 9.33Q26.69 8.93 26.69 8.48L26.69 8.48L26.69 8.48Q26.69 8.00 26.78 7.59L26.78 7.59L26.78 7.59Q26.87 7.18 27.10 6.85L27.10 6.85L27.10 6.85Q27.33 6.51 27.73 6.25L27.73 6.25L27.73 6.25Q28.14 6.00 28.77 5.82L28.77 5.82L28.77 5.82Q29.40 5.65 30.29 5.56L30.29 5.56L30.29 5.56Q31.18 5.47 32.38 5.47L32.38 5.47L33.69 5.47L33.69 5.47Q34.68 5.47 35.42 5.54L35.42 5.54L35.42 5.54Q36.16 5.61 36.69 5.77L36.69 5.77L36.69 5.77Q37.22 5.92 37.57 6.15L37.57 6.15L37.57 6.15Q37.93 6.38 38.13 6.70L38.13 6.70L38.13 6.70Q38.34 7.01 38.42 7.42L38.42 7.42L38.42 7.42Q38.51 7.82 38.51 8.31L38.51 8.31L37.19 8.31L37.19 8.31Q37.19 7.70 37.02 7.35L37.02 7.35L37.02 7.35Q36.84 7 36.43 6.83L36.43 6.83L36.43 6.83Q36.02 6.65 35.35 6.61L35.35 6.61L35.35 6.61Q34.68 6.56 33.69 6.56L33.69 6.56L32.38 6.56L32.38 6.56Q31.07 6.56 30.22 6.65L30.22 6.65L30.22 6.65Q29.37 6.75 28.88 6.97L28.88 6.97L28.88 6.97Q28.39 7.18 28.20 7.55L28.20 7.55L28.20 7.55Q28.01 7.92 28.01 8.48L28.01 8.48L28.01 8.48Q28.01 8.82 28.05 9.08L28.05 9.08L28.05 9.08Q28.10 9.35 28.25 9.55L28.25 9.55L28.25 9.55Q28.40 9.75 28.66 9.89L28.66 9.89L28.66 9.89Q28.93 10.03 29.37 10.12L29.37 10.12L29.37 10.12Q29.80 10.21 30.44 10.24L30.44 10.24L30.44 10.24Q31.07 10.28 31.94 10.28L31.94 10.28ZM46.82 12.69L47.91 12.69L47.91 12.69Q47.91 13.69 47.75 14.37L47.75 14.37L47.75 14.37Q47.58 15.04 47.20 15.44L47.20 15.44L47.20 15.44Q46.81 15.85 46.18 16.02L46.18 16.02L46.18 16.02Q45.55 16.19 44.63 16.19L44.63 16.19L44.63 16.19Q43.74 16.19 43.13 16.05L43.13 16.05L43.13 16.05Q42.52 15.91 42.14 15.59L42.14 15.59L42.14 15.59Q41.77 15.26 41.60 14.71L41.60 14.71L41.60 14.71Q41.44 14.16 41.44 13.34L41.44 13.34L41.44 9.39L39.82 9.39L39.82 8.31L41.44 8.31L41.44 6.16L42.75 6.16L42.75 8.31L47.69 8.31L47.69 9.39L42.75 9.39L42.75 13.34L42.75 13.34Q42.75 14 42.85 14.36L42.85 14.36L42.85 14.36Q42.95 14.71 43.17 14.88L43.17 14.88L43.17 14.88Q43.39 15.04 43.75 15.07L43.75 15.07L43.75 15.07Q44.11 15.09 44.63 15.09L44.63 15.09L44.63 15.09Q45.04 15.09 45.36 15.08L45.36 15.08L45.36 15.08Q45.68 15.07 45.93 14.99L45.93 14.99L45.93 14.99Q46.17 14.92 46.34 14.78L46.34 14.78L46.34 14.78Q46.51 14.63 46.62 14.36L46.62 14.36L46.62 14.36Q46.72 14.10 46.77 13.69L46.77 13.69L46.77 13.69Q46.82 13.28 46.82 12.69L46.82 12.69ZM49.67 8.31L50.98 8.31L50.98 12.69L50.98 12.69Q50.98 13.42 51.09 13.92L51.09 13.92L51.09 13.92Q51.20 14.42 51.53 14.73L51.53 14.73L51.53 14.73Q51.86 15.04 52.46 15.18L52.46 15.18L52.46 15.18Q53.06 15.31 54.04 15.31L54.04 15.31L54.04 15.31Q55.11 15.31 55.79 15.16L55.79 15.16L55.79 15.16Q56.47 15.00 56.86 14.71L56.86 14.71L56.86 14.71Q57.25 14.42 57.40 14.02L57.40 14.02L57.40 14.02Q57.54 13.62 57.54 13.13L57.54 13.13L57.54 8.31L58.86 8.31L58.86 16.19L57.54 16.19L57.54 14.88L57.54 14.88Q57.45 15.09 57.22 15.34L57.22 15.34L57.22 15.34Q57.00 15.60 56.55 15.82L56.55 15.82L56.55 15.82Q56.10 16.04 55.38 16.19L55.38 16.19L55.38 16.19Q54.67 16.34 53.61 16.34L53.61 16.34L53.61 16.34Q52.73 16.34 52.09 16.23L52.09 16.23L52.09 16.23Q51.46 16.13 51.02 15.92L51.02 15.92L51.02 15.92Q50.58 15.71 50.31 15.40L50.31 15.40L50.31 15.40Q50.05 15.09 49.90 14.69L49.90 14.69L49.90 14.69Q49.76 14.28 49.71 13.78L49.71 13.78L49.71 13.78Q49.66 13.28 49.66 12.69L49.66 12.69L49.67 8.31ZM65.20 16.34L65.20 16.34L65.20 16.34Q63.89 16.34 62.97 16.15L62.97 16.15L62.97 16.15Q62.06 15.96 61.48 15.49L61.48 15.49L61.48 15.49Q60.91 15.03 60.65 14.24L60.65 14.24L60.65 14.24Q60.39 13.45 60.39 12.26L60.39 12.26L60.39 12.26Q60.39 11.03 60.65 10.23L60.65 10.23L60.65 10.23Q60.91 9.42 61.48 8.95L61.48 8.95L61.48 8.95Q62.06 8.48 62.97 8.29L62.97 8.29L62.97 8.29Q63.89 8.09 65.20 8.09L65.20 8.09L65.20 8.09Q66.13 8.09 66.76 8.19L66.76 8.19L66.76 8.19Q67.39 8.29 67.79 8.43L67.79 8.43L67.79 8.43Q68.19 8.57 68.40 8.74L68.40 8.74L68.40 8.74Q68.61 8.91 68.70 9.05L68.70 9.05L68.70 5.69L70.01 5.69L70.01 16.19L68.70 16.19L68.70 15.02L68.70 15.02Q68.70 15.02 68.37 15.41L68.37 15.41L68.37 15.41Q68.09 15.69 67.74 15.86L67.74 15.86L67.74 15.86Q67.39 16.03 66.76 16.18L66.76 16.18L66.76 16.18Q66.13 16.34 65.20 16.34ZM65.20 15.31L65.20 15.31L65.20 15.31Q65.86 15.31 66.37 15.28L66.37 15.28L66.37 15.28Q66.88 15.25 67.27 15.15L67.27 15.15L67.27 15.15Q67.66 15.05 67.93 14.84L67.93 14.84L67.93 14.84Q68.20 14.64 68.37 14.31L68.37 14.31L68.37 14.31Q68.54 13.97 68.62 13.48L68.62 13.48L68.62 13.48Q68.70 12.98 68.70 12.28L68.70 12.28L68.70 12.28Q68.70 11.56 68.62 11.05L68.62 11.05L68.62 11.05Q68.54 10.54 68.37 10.20L68.37 10.20L68.37 10.20Q68.20 9.85 67.93 9.65L67.93 9.65L67.93 9.65Q67.66 9.45 67.27 9.35L67.27 9.35L67.27 9.35Q66.88 9.24 66.37 9.21L66.37 9.21L66.37 9.21Q65.86 9.19 65.20 9.19L65.20 9.19L65.20 9.19Q64.44 9.19 63.88 9.24L63.88 9.24L63.88 9.24Q63.32 9.28 62.93 9.41L62.93 9.41L62.93 9.41Q62.54 9.53 62.30 9.75L62.30 9.75L62.30 9.75Q62.06 9.97 61.92 10.31L61.92 10.31L61.92 10.31Q61.79 10.65 61.75 11.13L61.75 11.13L61.75 11.13Q61.70 11.61 61.70 12.26L61.70 12.26L61.70 12.26Q61.70 12.91 61.75 13.38L61.75 13.38L61.75 13.38Q61.79 13.86 61.92 14.19L61.92 14.19L61.92 14.19Q62.06 14.53 62.30 14.75L62.30 14.75L62.30 14.75Q62.54 14.97 62.93 15.09L62.93 15.09L62.93 15.09Q63.32 15.22 63.88 15.26L63.88 15.26L63.88 15.26Q64.44 15.31 65.20 15.31ZM71.33 8.31L75.48 16.19L75.92 16.19L75.92 16.19Q75.81 16.41 75.73 16.60L75.73 16.60L75.73 16.60Q75.64 16.80 75.52 16.97L75.52 16.97L75.52 16.97Q75.39 17.14 75.21 17.28L75.21 17.28L75.21 17.28Q75.02 17.42 74.72 17.52L74.72 17.52L74.72 17.52Q74.42 17.62 73.96 17.67L73.96 17.67L73.96 17.67Q73.51 17.72 72.86 17.72L72.86 17.72L72.86 18.81L72.86 18.81Q73.62 18.81 74.18 18.74L74.18 18.74L74.18 18.74Q74.74 18.67 75.15 18.54L75.15 18.54L75.15 18.54Q75.56 18.40 75.84 18.21L75.84 18.21L75.84 18.21Q76.12 18.02 76.32 17.78L76.32 17.78L76.32 17.78Q76.53 17.53 76.69 17.24L76.69 17.24L76.69 17.24Q76.85 16.95 77.01 16.63L77.01 16.63L77.23 16.19L81.17 8.31L79.64 8.31L76.36 15.31L72.86 8.31L71.33 8.31Z"></path></g><defs data-v-fde0c5aa=""><linearGradient data-v-fde0c5aa="" gradientTransform="rotate(25)" id="cdd7842a-e071-4d01-84d9-2b947ebc59a3" x1="0%" y1="0%" x2="100%" y2="0%"><stop data-v-fde0c5aa="" offset="0%" stop-color="#4E1A70" stop-opacity="1"></stop><stop data-v-fde0c5aa="" offset="100%" stop-color="#2B4CF2" stop-opacity="1"></stop></linearGradient></defs><g data-v-fde0c5aa="" id="87157440-05dc-493b-8203-c066e3dfa98b" stroke="none" fill="url(#cdd7842a-e071-4d01-84d9-2b947ebc59a3)" transform="matrix(0.4342513775896216,0,0,0.4342513775896216,40,128.28742946398137)"><path d="M71.862 0H9.725C7.761 0 4.947 1.064 3.473 2.362l-.792.698C1.206 4.36 0 7.031 0 8.995V96.428A3.583 3.583 0 0 0 3.572 100h62.132a3.581 3.581 0 0 0 3.572-3.572V11.722a3.58 3.58 0 0 0-3.572-3.572H24.172a2.352 2.352 0 0 0-4.703 0V32.667l-5.917-5.777-5.12 5.777V8.148h-4.86c-.026 0-.049.006-.075.008L7.34 3.755h64.463V93.04h.057a3.585 3.585 0 0 0 3.573-3.572V3.573A3.581 3.581 0 0 0 71.862 0z"></path></g><!----></svg>