<svg data-v-423bf9ae="" xmlns="http://www.w3.org/2000/svg" viewBox="0 0 45.25979116365119 60" class="icon"><!----><!----><!----><!----><g data-v-423bf9ae="" id="c7157a64-4ece-48b9-9556-4a4e42dd7f97" transform="matrix(0.5999999542236363,0,0,0.5999999542236363,-3.7155948007239203e-7,0)" stroke="none" fill="black"><path d="M71.862 0H9.725C7.761 0 4.947 1.064 3.473 2.362l-.792.698C1.206 4.36 0 7.031 0 8.995V96.428A3.583 3.583 0 0 0 3.572 100h62.132a3.581 3.581 0 0 0 3.572-3.572V11.722a3.58 3.58 0 0 0-3.572-3.572H24.172a2.352 2.352 0 0 0-4.703 0V32.667l-5.917-5.777-5.12 5.777V8.148h-4.86c-.026 0-.049.006-.075.008L7.34 3.755h64.463V93.04h.057a3.585 3.585 0 0 0 3.573-3.572V3.573A3.581 3.581 0 0 0 71.862 0z"></path></g><!----></svg>